<svg width="1024" height="1024" version="1.1" viewBox="0 0 1024 1024" xmlns="http://www.w3.org/2000/svg"><g><path transform="matrix(.72399 .68981 -.67956 .73362 0 0)" d="m454.41 34.239a62.432 90.606 0 0 1-62.432 90.606 62.432 90.606 0 0 1-62.432-90.606 62.432 90.606 0 0 1 62.432-90.606 62.432 90.606 0 0 1 62.432 90.606zm623.85-347.58a458.19 485.65 46.356 0 1-40.231 666.76 458.19 485.65 46.356 0 1-667.39-1.4016 458.19 485.65 46.356 0 1 40.231-666.76 458.19 485.65 46.356 0 1 667.39 1.4016z" fill="#37bafc" fill-rule="evenodd" stop-color="#000000" style="paint-order:fill markers stroke"/></g></svg>
